<svg width="580" height="400" xmlns="http://www.w3.org/2000/svg">
 <!-- Created with Method Draw - http://github.com/duopixel/Method-Draw/ -->
 <g>
  <title>background</title>
  <rect fill="#fff" id="canvas_background" height="402" width="582" y="-1" x="-1"/>
  <g display="none" overflow="visible" y="0" x="0" height="100%" width="100%" id="canvasGrid">
   <rect fill="url(#gridpattern)" stroke-width="0" y="0" x="0" height="100%" width="100%"/>
  </g>
 </g>
 <g>
  <title>Layer 1</title>
  <ellipse ry="20.5" rx="20.5" id="svg_1" cy="64.5" cx="254" stroke-width="1.5" stroke="#000" fill="#1ca0a0"/>
  <ellipse ry="20.5" rx="20.5" id="svg_3" cy="125.5" cx="183" stroke-width="1.5" stroke="#000" fill="#1ca0a0"/>
  <ellipse ry="20.5" rx="20.5" id="svg_4" cy="126.5" cx="328" stroke-width="1.5" stroke="#000" fill="#1ca0a0"/>
  <ellipse ry="20.5" rx="20.5" id="svg_5" cy="194.5" cx="150" stroke-width="1.5" stroke="#000" fill="#1ca0a0"/>
  <ellipse ry="20.5" rx="20.5" id="svg_6" cy="194.5" cx="212" stroke-width="1.5" stroke="#000" fill="#1ca0a0"/>
  <ellipse ry="20.5" rx="20.5" id="svg_7" cy="194.5" cx="300" stroke-width="1.5" stroke="#000" fill="#1ca0a0"/>
  <ellipse ry="20.5" rx="20.5" id="svg_8" cy="192.5" cx="363" stroke-width="1.5" stroke="#000" fill="#1ca0a0"/>
  <ellipse ry="20.5" rx="20.5" id="svg_9" cy="264.5" cx="365" stroke-width="1.5" stroke="#000" fill="#1ca0a0"/>
  <ellipse ry="20.5" rx="20.5" id="svg_10" cy="262.5" cx="419" stroke-width="1.5" stroke="#000" fill="#1ca0a0"/>
  <ellipse ry="20.5" rx="20.5" id="svg_11" cy="261.5" cx="471" stroke-width="1.5" stroke="#000" fill="#1ca0a0"/>
  <line stroke-linecap="null" stroke-linejoin="null" id="svg_13" y2="72" x2="233.5" y1="106" x1="192.5" fill-opacity="null" stroke-opacity="null" stroke-width="1.5" stroke="#000" fill="none"/>
  <line stroke-linecap="null" stroke-linejoin="null" id="svg_14" y2="142" x2="173.5" y1="175" x1="155.5" fill-opacity="null" stroke-opacity="null" stroke-width="1.5" stroke="#000" fill="none"/>
  <line stroke-linecap="null" stroke-linejoin="null" id="svg_15" y2="141" x2="194.5" y1="174" x1="208.5" fill-opacity="null" stroke-opacity="null" stroke-width="1.5" stroke="#000" fill="none"/>
  <line stroke-linecap="null" stroke-linejoin="null" id="svg_16" y2="108" x2="314.5" y1="72" x1="274.5" fill-opacity="null" stroke-opacity="null" stroke-width="1.5" stroke="#000" fill="none"/>
  <line stroke-linecap="null" stroke-linejoin="null" id="svg_17" y2="173" x2="300.5" y1="141" x1="312.5" fill-opacity="null" stroke-opacity="null" stroke-width="1.5" stroke="#000" fill="none"/>
  <line stroke-linecap="null" stroke-linejoin="null" id="svg_19" y2="171" x2="357.5" y1="141" x1="343.5" fill-opacity="null" stroke-opacity="null" stroke-width="1.5" stroke="#000" fill="none"/>
  <line stroke-linecap="null" stroke-linejoin="null" id="svg_20" y2="243" x2="364.5" y1="215" x1="364.5" fill-opacity="null" stroke-opacity="null" stroke-width="1.5" stroke="#000" fill="none"/>
  <line stroke-linecap="null" stroke-linejoin="null" id="svg_21" y2="241" x2="411.5" y1="201" x1="384.5" fill-opacity="null" stroke-opacity="null" stroke-width="1.5" stroke="#000" fill="none"/>
  <line stroke-linecap="null" stroke-linejoin="null" id="svg_22" y2="241" x2="462.5" y1="188" x1="384.5" fill-opacity="null" stroke-opacity="null" stroke-width="1.5" stroke="#000" fill="none"/>
 </g>
</svg>